<mxfile host="app.diagrams.net" modified="2024-06-16T22:15:59.019Z" agent="Mozilla/5.0 (Windows NT 10.0; Win64; x64) AppleWebKit/537.36 (KHTML, like Gecko) Chrome/125.0.0.0 Safari/537.36" version="24.5.4" etag="ECSET2-LTLl-9txpIeyv" type="github">
  <diagram name="Page-1" id="XjL6w3z8gFOMk31vARDU">
    <mxGraphModel>
      <root>
        <mxCell id="0" />
        <mxCell id="1" parent="0" />
      </root>
    </mxGraphModel>
  </diagram>
</mxfile>
